<?xml version="1.0" encoding="UTF-8" standalone="no"?>
<!-- Created with Inkscape (http://www.inkscape.org/) -->

<svg
   xmlns:dc="http://purl.org/dc/elements/1.1/"
   xmlns:cc="http://creativecommons.org/ns#"
   xmlns:rdf="http://www.w3.org/1999/02/22-rdf-syntax-ns#"
   xmlns:svg="http://www.w3.org/2000/svg"
   xmlns="http://www.w3.org/2000/svg"
   xmlns:sodipodi="http://sodipodi.sourceforge.net/DTD/sodipodi-0.dtd"
   xmlns:inkscape="http://www.inkscape.org/namespaces/inkscape"
   width="210mm"
   height="297mm"
   viewBox="0 0 210 297"
   version="1.1"
   id="svg8"
   inkscape:version="0.92.2 (5c3e80d, 2017-08-06)"
   sodipodi:docname="logo.svg">
  <defs
     id="defs2" />
  <sodipodi:namedview
     id="base"
     pagecolor="#ffffff"
     bordercolor="#666666"
     borderopacity="1.0"
     inkscape:pageopacity="0.0"
     inkscape:pageshadow="2"
     inkscape:zoom="1.0692406"
     inkscape:cx="544.38286"
     inkscape:cy="785.27893"
     inkscape:document-units="mm"
     inkscape:current-layer="layer1"
     showgrid="false"
     inkscape:window-width="1920"
     inkscape:window-height="1017"
     inkscape:window-x="-8"
     inkscape:window-y="-8"
     inkscape:window-maximized="1" />
  <metadata
     id="metadata5">
    <rdf:RDF>
      <cc:Work
         rdf:about="">
        <dc:format>image/svg+xml</dc:format>
        <dc:type
           rdf:resource="http://purl.org/dc/dcmitype/StillImage" />
        <dc:title></dc:title>
      </cc:Work>
    </rdf:RDF>
  </metadata>
  <g
     inkscape:label="Capa 1"
     inkscape:groupmode="layer"
     id="layer1">
    <path
       style="fill:#ffffff"
       d="m 469.17666,176.11969 v -12 l 6.25,0.006 c 12.93622,0.0115 19.75,4.02545 19.75,11.63446 0,9.48461 -4.04811,12.35997 -17.40112,12.35997 h -8.59888 z"
       id="path34"
       inkscape:connector-curvature="0"
       transform="scale(0.26458333)" />
    <path
       style="fill:#ff0000;stroke-width:0.26458332"
       d="m 93.524547,18.620576 v -2.778125 h 1.86058 c 3.01724,0 4.22484,0.772279 4.22484,2.701859 0,1.874747 -1.49539,2.854391 -4.35713,2.854391 h -1.72829 z"
       id="path36"
       inkscape:connector-curvature="0" />
    <path
       style="fill:#ff0000"
       d=""
       id="path38"
       inkscape:connector-curvature="0"
       transform="scale(0.26458333)" />
    <path
       style="fill:#ff0000;stroke-width:0.26458332"
       d="M 93.524547,12.596746 V 9.351042 l 2.05052,0.189984 c 4.0012,0.370718 5.211293,1.568455 4.477153,4.431437 -0.266923,1.040964 -1.398313,1.505895 -4.137663,1.70034 l -2.39001,0.169648 z"
       id="path40"
       inkscape:connector-curvature="0" />
    <path
       style="fill:#ff0000;stroke-width:0.30411875"
       d="M 0.26132934,22.35069 V -0.00203974 H 59.108312 117.95529 V 22.35069 44.703424 H 59.108312 0.26132934 Z M 38.076316,22.694381 c 1.054619,-0.440648 3.241048,-2.761036 3.241048,-3.439621 0,-0.766236 -1.148474,-0.395943 -1.92351,0.620181 -1.10258,1.445554 -2.677448,2.122413 -4.525185,1.94487 -1.224129,-0.117623 -1.71465,-0.356206 -2.689521,-1.308142 -1.459661,-1.425321 -1.902682,-2.685148 -1.927889,-5.482371 -0.01558,-1.727562 0.131538,-2.444649 0.746752,-3.640126 1.014677,-1.9717097 2.194957,-2.6431237 4.687575,-2.6665737 2.187663,-0.02059 2.644466,0.236759 3.541506,1.9951027 0.716741,1.404927 1.341824,1.341644 1.299861,-0.131595 -0.06402,-2.2475697 -0.299902,-2.6036007 -1.961068,-2.9598567 -4.552571,-0.976352 -8.593089,0.538879 -10.062572,3.7735557 -0.684056,1.50577 -0.778851,6.055566 -0.157083,7.539315 0.629118,1.501286 2.019496,2.982773 3.378811,3.600225 1.490213,0.67691 4.902877,0.760214 6.351275,0.155036 z m 19.77345,-0.267661 c 0.235471,-0.376348 1.213758,-2.805496 2.173968,-5.398108 0.960212,-2.592613 1.843249,-4.821563 1.9623,-4.953225 0.119055,-0.131659 1.076802,1.989569 2.128325,4.71384 2.24669,5.820693 2.559478,6.392908 3.424293,6.264363 0.661474,-0.09832 1.125381,-1.188043 4.027056,-9.459606 0.633338,-1.805411 1.476642,-3.7616497 1.874007,-4.3471967 0.397361,-0.585546 0.722476,-1.201938 0.722476,-1.369755 0,-0.415611 -3.722486,-0.217237 -3.861953,0.205803 -0.05981,0.181417 0.159361,0.455126 0.48705,0.60824 0.575045,0.268695 0.548095,0.431491 -0.774015,4.6752057 -0.753396,2.418249 -1.573461,4.88161 -1.822368,5.474137 -0.575466,1.369896 -0.553045,1.408744 -2.852219,-4.941129 l -1.785001,-4.9298247 0.747641,-0.288615 c 1.410626,-0.54455 0.584497,-0.927859 -1.999768,-0.927859 -1.716037,0 -2.574031,0.11912 -2.6573,0.368929 -0.06764,0.202915 0.22888,0.457243 0.658923,0.565179 0.430046,0.107935 0.781902,0.361016 0.781902,0.562404 0,0.467257 -1.454457,4.7456777 -2.737106,8.0514557 -0.758376,1.954564 -1.055103,2.43809 -1.265489,2.062152 -0.481941,-0.861185 -3.600373,-9.6329157 -3.600373,-10.1273737 0,-0.261401 0.279302,-0.548315 0.620672,-0.637585 0.341371,-0.08927 0.56946,-0.315952 0.506865,-0.503735 -0.16543,-0.496295 -4.838766,-0.46014 -5.005051,0.03872 -0.0697,0.209081 0.08645,0.380148 0.346996,0.380148 0.64109,0 0.981559,0.734994 3.510248,7.5778487 1.200208,3.247855 2.316414,6.155991 2.480466,6.462522 0.409448,0.765058 1.39019,0.699791 1.907455,-0.126937 z M 25.803843,21.300709 c 0.571548,-2.382475 -0.178154,-2.955279 -1.213011,-0.92679 l -0.620599,1.216474 h -3.187067 -3.187065 v -3.041189 -3.041187 l 1.748681,0.0047 c 2.038705,0.0054 2.409532,0.180901 2.554351,1.208712 0.140184,0.994912 1.033108,1.16651 1.279689,0.245922 0.240647,-0.898427 0.240647,-2.932512 0,-3.830939 -0.24325,-0.908148 -1.089763,-0.753912 -1.324718,0.241366 -0.181793,0.770086 -1.280475,1.155528 -3.421677,1.200399 l -0.836326,0.01751 V 11.706559 8.8174303 h 1.938755 c 3.102221,0 3.844629,0.242115 4.334026,1.4134047 0.235622,0.563925 0.646959,1.019548 0.920451,1.019548 0.416825,0 0.465201,-0.247021 0.308121,-1.5733367 -0.102487,-0.865333 -0.302716,-1.689711 -0.444953,-1.831949 -0.402013,-0.402013 -11.088507,-0.162345 -11.226212,0.251775 -0.06289,0.189119 0.214857,0.426477 0.617212,0.527463 1.000688,0.251156 1.158523,1.6498697 0.914754,8.1063967 -0.194715,5.157308 -0.195858,5.163806 -0.907388,5.163806 -0.430525,0 -0.712431,0.180507 -0.712431,0.456179 0,0.39021 0.875197,0.456179 6.052042,0.456179 h 6.052042 z m 62.070693,-0.168367 c 0.20611,-0.920991 0.30394,-1.745332 0.2174,-1.831872 -0.29309,-0.29309 -1.13256,0.213984 -1.31716,0.795623 -0.41023,1.292529 -0.96641,1.4943 -4.118984,1.4943 h -3.019464 v -3.055699 -3.055699 l 1.877414,0.09054 c 1.730494,0.08346 1.916874,0.161938 2.381664,1.002898 0.92154,1.667351 1.35767,1.182206 1.45582,-1.619435 0.0867,-2.474026 0.0731,-2.529536 -0.59577,-2.43295 -0.43651,0.06303 -0.74878,0.373166 -0.86199,0.856091 -0.18095,0.771909 -1.277102,1.157071 -3.420812,1.201995 l -0.836326,0.01751 V 11.706516 8.8173873 h 2.261094 c 2.739234,0 3.741874,0.338024 3.995084,1.3468797 0.17334,0.690642 1.18588,1.348354 1.5363,0.997932 0.079,-0.07902 -0.0425,-0.878425 -0.26999,-1.7764497 l -0.41367,-1.632775 h -5.733927 c -4.316815,0 -5.765242,0.09395 -5.860643,0.380148 -0.07927,0.237813 0.163436,0.380148 0.648224,0.380148 0.454909,0 0.904955,0.24293 1.089761,0.588246 0.417539,0.780182 0.417539,11.4245517 0,12.2047357 -0.173149,0.323533 -0.575636,0.588243 -0.894411,0.588243 -0.62579,0 -1.023522,0.402945 -0.708591,0.717878 0.106966,0.106963 2.898926,0.19448 6.204357,0.19448 h 6.00988 z M 100.602,22.208084 c 2.19628,-1.120457 3.02301,-3.478204 1.87801,-5.355873 -0.58134,-0.953333 -2.25617,-1.952238 -3.273974,-1.952672 -0.31426,-1.32e-4 0.013,-0.28497 0.74181,-0.645753 2.813014,-1.392409 2.895674,-4.5737427 0.153874,-5.9215757 -0.972574,-0.478102 -1.890154,-0.568156 -5.840644,-0.573217 -3.48261,-0.0045 -4.7198,0.09167 -4.81522,0.374145 -0.0805,0.238257 0.16083,0.380148 0.64653,0.380148 0.45491,0 0.90495,0.242929 1.08976,0.588245 0.1838,0.343448 0.31482,2.8829207 0.31482,6.1023687 0,5.695354 -0.17988,6.690611 -1.20923,6.690611 -0.62579,0 -1.02353,0.402944 -0.70859,0.717878 0.10696,0.106963 2.36677,0.194479 5.02181,0.194479 4.20176,0 4.97943,-0.0776 6.001044,-0.598784 z"
       id="path42"
       inkscape:connector-curvature="0" />
  </g>
</svg>
